<?xml version="1.0" encoding="utf-8"?>
<!-- Generator: Adobe Illustrator 25.3.1, SVG Export Plug-In . SVG Version: 6.00 Build 0)  -->
<svg version="1.1" id="Layer_1" xmlns="http://www.w3.org/2000/svg" xmlns:xlink="http://www.w3.org/1999/xlink" x="0px" y="0px"
	 viewBox="0 0 55.9 55.9" style="enable-background:new 0 0 55.9 55.9;" xml:space="preserve">
<style type="text/css">
	.st0{fill:#006837;}
	.st1{enable-background:new    ;}
	.st2{fill:#F1F1F1;}
</style>
<g>
	<circle class="st0" cx="28" cy="28" r="28"/>
	<g class="st1">
		<path class="st2" d="M19.2,39.1c1.8-1.7,3.4-3.3,4.8-4.7c1.4-1.4,2.6-2.8,3.6-4s1.8-2.4,2.3-3.4c0.5-1.1,0.8-2.1,0.8-3
			c0-1.4-0.4-2.4-1.1-3.2c-0.7-0.8-1.8-1.2-3.1-1.2c-1,0-1.9,0.3-2.7,0.8c-0.8,0.6-1.6,1.2-2.3,2L19,19.7c1.2-1.3,2.4-2.2,3.6-2.9
			c1.2-0.7,2.7-1,4.5-1c1.2,0,2.3,0.2,3.3,0.6c1,0.4,1.8,0.9,2.5,1.6c0.7,0.7,1.2,1.5,1.6,2.5s0.6,2,0.6,3.2c0,1.1-0.2,2.3-0.7,3.4
			c-0.5,1.2-1.2,2.3-2,3.5c-0.8,1.2-1.8,2.4-2.9,3.7c-1.1,1.3-2.3,2.5-3.6,3.9c0.7-0.1,1.4-0.1,2.2-0.2s1.5-0.1,2.1-0.1h6.2v3.9
			H19.2V39.1z"/>
	</g>
</g>
</svg>
