<?xml version="1.0" encoding="utf-8"?>
<!-- Generator: Adobe Illustrator 25.3.1, SVG Export Plug-In . SVG Version: 6.00 Build 0)  -->
<svg version="1.1" id="Layer_1" xmlns="http://www.w3.org/2000/svg" xmlns:xlink="http://www.w3.org/1999/xlink" x="0px" y="0px"
	 viewBox="0 0 55.9 55.9" style="enable-background:new 0 0 55.9 55.9;" xml:space="preserve">
<style type="text/css">
	.st0{fill:#006837;}
	.st1{enable-background:new    ;}
	.st2{fill:#F1F1F1;}
</style>
<g>
	<circle class="st0" cx="28" cy="28" r="28"/>
	<g class="st1">
		<path class="st2" d="M20.9,35.7c0.8,0.8,1.7,1.4,2.6,2c1,0.5,2.1,0.8,3.4,0.8c1.4,0,2.5-0.3,3.4-1c0.9-0.7,1.3-1.6,1.3-2.8
			c0-0.7-0.1-1.3-0.4-1.8s-0.6-1-1.2-1.4c-0.6-0.4-1.3-0.7-2.3-0.9s-2.2-0.3-3.6-0.3v-3.4c1.3,0,2.3-0.1,3.1-0.3
			c0.8-0.2,1.5-0.5,2-0.8c0.5-0.4,0.9-0.8,1.1-1.3c0.2-0.5,0.3-1.1,0.3-1.6c0-1.1-0.3-1.9-1-2.5c-0.7-0.6-1.6-0.9-2.8-0.9
			c-1,0-1.9,0.2-2.7,0.7c-0.8,0.4-1.6,1-2.4,1.7L19.5,19c1.1-1,2.3-1.7,3.5-2.3c1.2-0.6,2.6-0.9,4.1-0.9c1.2,0,2.3,0.1,3.4,0.4
			c1,0.3,1.9,0.7,2.6,1.3c0.7,0.6,1.3,1.3,1.7,2.1c0.4,0.8,0.6,1.8,0.6,2.9c0,1.4-0.4,2.6-1.2,3.6c-0.8,1-1.9,1.7-3.3,2.2v0.2
			c1.5,0.4,2.8,1.1,3.8,2.2s1.5,2.4,1.5,4.1c0,1.2-0.2,2.2-0.7,3.1s-1.1,1.7-1.9,2.3c-0.8,0.6-1.8,1.1-2.8,1.4
			c-1.1,0.3-2.2,0.5-3.5,0.5c-2.1,0-3.8-0.3-5.2-1c-1.4-0.7-2.5-1.5-3.4-2.6L20.9,35.7z"/>
	</g>
</g>
</svg>
