<?xml version="1.0" encoding="utf-8"?>
<!-- Generator: Adobe Illustrator 25.3.1, SVG Export Plug-In . SVG Version: 6.00 Build 0)  -->
<svg version="1.1" id="Layer_1" xmlns="http://www.w3.org/2000/svg" xmlns:xlink="http://www.w3.org/1999/xlink" x="0px" y="0px"
	 viewBox="0 0 55.9 55.9" style="enable-background:new 0 0 55.9 55.9;" xml:space="preserve">
<style type="text/css">
	.st0{fill:#006837;}
	.st1{enable-background:new    ;}
	.st2{fill:#F1F1F1;}
</style>
<g>
	<circle class="st0" cx="28" cy="28" r="28"/>
	<g class="st1">
		<path class="st2" d="M20.8,35.7c0.8,0.7,1.6,1.4,2.6,1.9s2.1,0.8,3.4,0.8c1.4,0,2.6-0.4,3.5-1.3s1.4-2.1,1.4-3.6
			c0-1.5-0.4-2.7-1.3-3.5s-2-1.2-3.4-1.2c-0.8,0-1.5,0.1-2.1,0.3c-0.6,0.2-1.2,0.6-2,1.1l-2.2-1.4l0.8-12.6h13.6v3.9h-9.6l-0.5,6.2
			c0.5-0.3,1.1-0.5,1.6-0.6s1.1-0.2,1.8-0.2c1.1,0,2.1,0.2,3.1,0.5c1,0.3,1.8,0.8,2.5,1.5c0.7,0.7,1.3,1.5,1.7,2.5
			c0.4,1,0.6,2.2,0.6,3.5c0,1.4-0.2,2.6-0.7,3.7s-1.2,2-2,2.8c-0.8,0.7-1.8,1.3-2.9,1.7c-1.1,0.4-2.2,0.6-3.4,0.6
			c-2.1,0-3.8-0.4-5.2-1.1c-1.4-0.7-2.6-1.5-3.5-2.5L20.8,35.7z"/>
	</g>
</g>
</svg>
