<?xml version="1.0" encoding="utf-8"?>
<!-- Generator: Adobe Illustrator 25.3.1, SVG Export Plug-In . SVG Version: 6.00 Build 0)  -->
<svg version="1.1" id="Layer_1" xmlns="http://www.w3.org/2000/svg" xmlns:xlink="http://www.w3.org/1999/xlink" x="0px" y="0px"
	 viewBox="0 0 55.9 55.9" style="enable-background:new 0 0 55.9 55.9;" xml:space="preserve">
<style type="text/css">
	.st0{fill:#006837;}
	.st1{enable-background:new    ;}
	.st2{fill:#F1F1F1;}
</style>
<g>
	<circle class="st0" cx="28" cy="28" r="28"/>
	<g class="st1">
		<path class="st2" d="M33.8,21.5c-0.5-0.6-1-1-1.8-1.4s-1.5-0.5-2.3-0.5c-0.8,0-1.6,0.2-2.3,0.5c-0.7,0.3-1.3,0.8-1.9,1.6
			c-0.5,0.7-1,1.7-1.3,2.9c-0.3,1.2-0.5,2.7-0.6,4.4c0.7-0.9,1.6-1.7,2.6-2.2c1-0.5,2-0.8,2.9-0.8c1.1,0,2.1,0.2,3,0.5
			c0.9,0.3,1.7,0.8,2.4,1.5c0.7,0.7,1.2,1.5,1.5,2.5c0.4,1,0.5,2.1,0.5,3.5c0,1.3-0.2,2.4-0.6,3.5c-0.4,1-1,1.9-1.7,2.6
			c-0.7,0.7-1.6,1.3-2.5,1.7c-1,0.4-2,0.6-3.1,0.6c-1.3,0-2.4-0.2-3.6-0.7C24,41,23,40.2,22.2,39.2s-1.5-2.3-2-3.9
			c-0.5-1.6-0.7-3.4-0.7-5.6c0-2.5,0.3-4.6,0.8-6.4c0.6-1.8,1.3-3.2,2.2-4.3c0.9-1.1,2-1.9,3.2-2.5c1.2-0.5,2.5-0.8,3.8-0.8
			c1.5,0,2.9,0.3,4,0.8c1.1,0.6,2,1.2,2.8,2L33.8,21.5z M28.6,38.7c1.1,0,2-0.4,2.7-1.2c0.7-0.8,1.1-2,1.1-3.6c0-1.5-0.3-2.7-1-3.4
			c-0.7-0.7-1.7-1.1-3-1.1c-0.7,0-1.5,0.2-2.3,0.7c-0.8,0.4-1.6,1.2-2.3,2.3c0.2,2.3,0.8,3.9,1.6,4.9C26.3,38.2,27.4,38.7,28.6,38.7
			z"/>
	</g>
</g>
</svg>
