<?xml version="1.0" encoding="utf-8"?>
<!-- Generator: Adobe Illustrator 25.3.1, SVG Export Plug-In . SVG Version: 6.00 Build 0)  -->
<svg version="1.1" id="Layer_1" xmlns="http://www.w3.org/2000/svg" xmlns:xlink="http://www.w3.org/1999/xlink" x="0px" y="0px"
	 viewBox="0 0 55.9 55.9" style="enable-background:new 0 0 55.9 55.9;" xml:space="preserve">
<style type="text/css">
	.st0{fill:#006837;}
	.st1{enable-background:new    ;}
	.st2{fill:#F1F1F1;}
</style>
<g>
	<circle class="st0" cx="28" cy="28" r="28"/>
	<g class="st1">
		<path class="st2" d="M25,35.5c0.3-1.9,0.7-3.7,1.3-5.4c0.5-1.7,1.2-3.4,2.1-5c0.9-1.6,1.9-3.3,3.1-5h-12v-3.9h17.1v2.8
			c-1.5,1.8-2.7,3.6-3.6,5.3c-0.9,1.7-1.6,3.4-2.2,5.1c-0.5,1.7-0.9,3.6-1.1,5.6c-0.2,2-0.4,4.2-0.5,6.7h-4.7
			C24.5,39.5,24.7,37.4,25,35.5z"/>
	</g>
</g>
</svg>
