<?xml version="1.0" encoding="utf-8"?>
<!-- Generator: Adobe Illustrator 25.3.1, SVG Export Plug-In . SVG Version: 6.00 Build 0)  -->
<svg version="1.1" id="Layer_1" xmlns="http://www.w3.org/2000/svg" xmlns:xlink="http://www.w3.org/1999/xlink" x="0px" y="0px"
	 viewBox="0 0 55.9 55.9" style="enable-background:new 0 0 55.9 55.9;" xml:space="preserve">
<style type="text/css">
	.st0{fill:#006837;}
	.st1{enable-background:new    ;}
	.st2{fill:#F1F1F1;}
</style>
<g>
	<circle class="st0" cx="28" cy="28" r="28"/>
	<g class="st1">
		<path class="st2" d="M19.3,35.2c0-0.8,0.1-1.5,0.4-2.2c0.3-0.7,0.6-1.2,1-1.8c0.4-0.5,0.9-1,1.5-1.4c0.5-0.4,1.1-0.8,1.7-1.1v-0.2
			c-1-0.7-1.8-1.5-2.5-2.5c-0.7-1-1-2.1-1-3.5c0-1,0.2-2,0.6-2.8c0.4-0.8,0.9-1.5,1.6-2.1c0.7-0.6,1.5-1,2.4-1.4
			c0.9-0.3,2-0.5,3.1-0.5c1.1,0,2.2,0.2,3.1,0.5c0.9,0.3,1.7,0.8,2.4,1.4c0.7,0.6,1.2,1.3,1.5,2.2c0.3,0.8,0.5,1.8,0.5,2.8
			c0,0.6-0.1,1.2-0.3,1.8c-0.2,0.6-0.5,1.1-0.8,1.6c-0.3,0.5-0.7,0.9-1.1,1.4c-0.4,0.4-0.8,0.8-1.2,1.1v0.2c0.6,0.3,1.1,0.7,1.7,1.1
			c0.5,0.4,1,0.9,1.4,1.4c0.4,0.5,0.7,1.1,1,1.8c0.2,0.7,0.4,1.4,0.4,2.3c0,1-0.2,1.9-0.6,2.7c-0.4,0.8-1,1.6-1.7,2.2
			c-0.7,0.6-1.7,1.1-2.7,1.5c-1.1,0.3-2.2,0.5-3.5,0.5c-1.3,0-2.4-0.2-3.5-0.5c-1.1-0.3-2-0.8-2.7-1.4c-0.8-0.6-1.4-1.3-1.8-2.2
			C19.6,37.2,19.3,36.2,19.3,35.2z M23.4,34.7c0,1.3,0.5,2.3,1.4,3.1c0.9,0.8,2,1.1,3.3,1.1c1.2,0,2.2-0.3,3-1
			c0.8-0.7,1.2-1.6,1.2-2.8c0-0.7-0.2-1.3-0.5-1.8c-0.3-0.5-0.8-0.9-1.3-1.3c-0.5-0.4-1.2-0.7-1.9-1.1c-0.7-0.3-1.5-0.7-2.4-1
			c-0.8,0.6-1.5,1.3-2,2.1C23.6,32.8,23.4,33.7,23.4,34.7z M29.7,27.4c0.7-0.7,1.2-1.4,1.6-2.1c0.4-0.7,0.5-1.5,0.5-2.3
			c0-1.1-0.3-2-1-2.8s-1.6-1.1-2.8-1.1c-1,0-1.8,0.3-2.5,0.9c-0.7,0.6-1,1.5-1,2.6c0,0.6,0.1,1.2,0.4,1.7c0.3,0.5,0.6,0.9,1.1,1.3
			c0.5,0.4,1,0.7,1.6,1C28.3,26.8,28.9,27.1,29.7,27.4z"/>
	</g>
</g>
</svg>
