<svg xmlns="http://www.w3.org/2000/svg" viewBox="0 0 81.56 97.8"><defs><style>.cls-1{fill:#b2b2b2;}.cls-2{fill:#989898;stroke:#b2b2b2;stroke-linecap:round;stroke-miterlimit:10;stroke-width:3.94px;}</style></defs><g id="Layer_2" data-name="Layer 2"><g id="Layer_3" data-name="Layer 3"><path class="cls-1" d="M74.71,17v5.62a9.48,9.48,0,1,1-19,0v-6.4H25.44v6.4a9.48,9.48,0,0,1-19,0V17.16A10.83,10.83,0,0,0,0,27.07V87A10.83,10.83,0,0,0,10.83,97.8h59.9A10.83,10.83,0,0,0,81.56,87V27.07A10.81,10.81,0,0,0,74.71,17Zm-2,71.05H8.83V41.14h63.9Z"/><path class="cls-1" d="M16,27.79a5.15,5.15,0,0,0,5.15-5.15V5.15a5.15,5.15,0,1,0-10.3,0V22.64A5.15,5.15,0,0,0,16,27.79Z"/><path class="cls-1" d="M65.23,27.79a5.15,5.15,0,0,0,5.15-5.15V5.15a5.15,5.15,0,1,0-10.3,0V22.64A5.15,5.15,0,0,0,65.23,27.79Z"/><line class="cls-2" x1="23.75" y1="46.23" x2="23.75" y2="82.98"/><line class="cls-2" x1="57.81" y1="46.23" x2="57.81" y2="82.98"/><line class="cls-2" x1="40.78" y1="46.23" x2="40.78" y2="82.98"/><line class="cls-2" x1="16.96" y1="56.2" x2="64.6" y2="56.2"/><line class="cls-2" x1="16.96" y1="73" x2="64.6" y2="73"/></g></g></svg>