<svg xmlns="http://www.w3.org/2000/svg" viewBox="0 0 394.83 34.91"><defs><style>.cls-1{fill:#fff;}.cls-2{font-size:18px;font-family:Roboto-Bold, Roboto;font-weight:700;}.cls-2,.cls-6{fill:#f1f2f2;}.cls-3{letter-spacing:-0.01em;}.cls-4{letter-spacing:-0.06em;}.cls-5{letter-spacing:0.01em;}.cls-6{font-size:13px;font-family:Roboto-Regular, Roboto;}.cls-7{letter-spacing:-0.04em;}.cls-8{letter-spacing:-0.01em;}.cls-9{letter-spacing:-0.01em;}.cls-10{letter-spacing:-0.04em;}.cls-11{letter-spacing:-0.01em;}.cls-12{letter-spacing:-0.01em;}</style></defs><g id="Layer_2" data-name="Layer 2"><g id="Layer_1-2" data-name="Layer 1"><path id="picpa-logo" class="cls-1" d="M17.71,11.07H13.27L7.82,19.51,13.27,28h4.44l-5.45-8.44Zm-5.21,0H8.06L2.6,19.51,8.06,28h4.46L7,19.51Zm11.54,0-5.45,8.44H23l5.45-8.44L23,2.62H18.59Zm0,0-5.45,8.44H23l5.45-8.44L23,2.62H18.59Zm-5.21,0-5.48,8.44h4.44l5.45-8.44L17.81,2.62H13.35ZM27.73,0H3.34A3.34,3.34,0,0,0,0,3.36V27.21a3.34,3.34,0,0,0,3.34,3.35H27.73a3.34,3.34,0,0,0,3.34-3.35V3.36A3.34,3.34,0,0,0,27.73,0Zm2.61,27.21a2.61,2.61,0,0,1-2.61,2.61H3.34a2.6,2.6,0,0,1-2.6-2.61V3.36A2.62,2.62,0,0,1,3.34.75H27.73a2.61,2.61,0,0,1,2.61,2.61Z"/><text class="cls-2" transform="translate(34.4 30.03)">ORIE<tspan class="cls-3" x="39.29" y="0">N</tspan><tspan class="cls-4" x="51.74" y="0">T</tspan><tspan x="61.82" y="0">AL MINDORO C</tspan><tspan class="cls-5" x="186.19" y="0">H</tspan><tspan x="199.06" y="0">APTER</tspan></text><text class="cls-6" transform="translate(34.4 11.45)">PHILIPPINE INST<tspan class="cls-3" x="99.62" y="0">I</tspan><tspan x="102.97" y="0">TUTE OF CE</tspan><tspan class="cls-7" x="172.71" y="0">R</tspan><tspan x="180.21" y="0">TIFIED PUBLIC </tspan><tspan class="cls-8" x="268.29" y="0">A</tspan><tspan x="276.7" y="0">CCOU</tspan><tspan class="cls-9" x="310.99" y="0">N</tspan><tspan class="cls-10" x="320.07" y="0">T</tspan><tspan x="327.33" y="0">A</tspan><tspan class="cls-11" x="335.81" y="0">N</tspan><tspan class="cls-12" x="344.89" y="0">T</tspan><tspan x="352.55" y="0">S</tspan></text></g></g></svg>