<?xml version="1.0" encoding="utf-8"?>
<!-- Generator: Adobe Illustrator 25.2.3, SVG Export Plug-In . SVG Version: 6.00 Build 0)  -->
<svg version="1.1" id="Layer_1" xmlns="http://www.w3.org/2000/svg" xmlns:xlink="http://www.w3.org/1999/xlink" x="0px" y="0px"
	 viewBox="0 0 394.8 34.9" style="enable-background:new 0 0 394.8 34.9;" xml:space="preserve">
<style type="text/css">
	.st0{fill:#FFFFFF;}
	.st1{fill:#F1F2F2;}
</style>
<g>
	<path id="picpa-logo" class="st0" d="M18.5,13.2h-4.4l-5.4,8.4l5.4,8.5h4.4l-5.5-8.4L18.5,13.2z M13.3,13.2H8.9l-5.5,8.4l5.5,8.5
		h4.5l-5.5-8.5L13.3,13.2z M24.9,13.2l-5.4,8.4h4.4l5.5-8.4l-5.5-8.4h-4.4L24.9,13.2z M24.9,13.2l-5.4,8.4h4.4l5.5-8.4l-5.5-8.4
		h-4.4L24.9,13.2z M19.7,13.2l-5.5,8.4h4.4l5.4-8.4l-5.4-8.4h-4.5L19.7,13.2z M28.6,2.2H4.2c-1.8,0-3.3,1.5-3.3,3.3c0,0,0,0,0,0
		v23.9c0,1.8,1.5,3.3,3.3,3.3c0,0,0,0,0,0h24.4c1.8,0,3.3-1.5,3.3-3.3c0,0,0,0,0,0V5.5C31.9,3.7,30.4,2.2,28.6,2.2
		C28.6,2.2,28.6,2.2,28.6,2.2z M31.2,29.4c0,1.4-1.2,2.6-2.6,2.6c0,0,0,0,0,0H4.2c-1.4,0-2.6-1.2-2.6-2.6c0,0,0,0,0,0V5.5
		c0-1.4,1.2-2.6,2.6-2.6h24.4c1.4,0,2.6,1.2,2.6,2.6c0,0,0,0,0,0V29.4z"/>
	<path class="st1" d="M45.9,25.1c0,1.3-0.2,2.4-0.7,3.3s-1.1,1.7-1.9,2.2s-1.8,0.8-2.9,0.8c-1.1,0-2-0.3-2.8-0.8s-1.5-1.2-1.9-2.2
		c-0.5-0.9-0.7-2-0.7-3.3v-0.6c0-1.3,0.2-2.4,0.7-3.3c0.5-1,1.1-1.7,1.9-2.2s1.8-0.8,2.8-0.8s2,0.3,2.8,0.8s1.5,1.2,1.9,2.2
		c0.5,1,0.7,2.1,0.7,3.3V25.1z M43.2,24.5c0-1.3-0.2-2.4-0.7-3.1s-1.2-1-2.1-1c-0.9,0-1.6,0.3-2,1s-0.7,1.7-0.7,3v0.6
		c0,1.3,0.2,2.3,0.7,3s1.2,1.1,2.1,1.1c0.9,0,1.6-0.3,2-1c0.5-0.7,0.7-1.7,0.7-3V24.5z"/>
	<path class="st1" d="M52.5,26.5h-2.1v4.7h-2.6V18.4h4.8c1.5,0,2.7,0.3,3.5,1s1.2,1.6,1.2,2.9c0,0.9-0.2,1.6-0.6,2.2
		c-0.4,0.6-1,1-1.7,1.4l2.8,5.2v0.1h-2.8L52.5,26.5z M50.4,24.4h2.1c0.7,0,1.2-0.2,1.5-0.5c0.4-0.3,0.5-0.8,0.5-1.4
		c0-0.6-0.2-1.1-0.5-1.4s-0.9-0.5-1.6-0.5h-2.1V24.4z"/>
	<path class="st1" d="M62.1,31.2h-2.6V18.4h2.6V31.2z"/>
	<path class="st1" d="M72.2,25.7h-5.1v3.4h5.9v2.1h-8.6V18.4h8.6v2.1h-5.9v3h5.1V25.7z"/>
	<path class="st1" d="M85.1,31.2h-2.6l-5.1-8.4v8.4h-2.6V18.4h2.6l5.1,8.4v-8.4h2.6V31.2z"/>
	<path class="st1" d="M96.7,20.5h-3.9v10.7h-2.6V20.5h-3.9v-2.1h10.4V20.5z"/>
	<path class="st1" d="M104.4,28.6h-4.6l-0.9,2.6h-2.8l4.8-12.8h2.4l4.8,12.8h-2.8L104.4,28.6z M100.5,26.4h3.2l-1.6-4.8L100.5,26.4z
		"/>
	<path class="st1" d="M111.9,29.1h5.6v2.1h-8.2V18.4h2.6V29.1z"/>
	<path class="st1" d="M127,18.4l3.3,9.3l3.3-9.3h3.5v12.8h-2.6v-3.5l0.3-6l-3.5,9.5h-1.8l-3.4-9.5l0.3,6v3.5h-2.6V18.4H127z"/>
	<path class="st1" d="M142.1,31.2h-2.6V18.4h2.6V31.2z"/>
	<path class="st1" d="M155,31.2h-2.6l-5.1-8.4v8.4h-2.6V18.4h2.6l5.1,8.4v-8.4h2.6V31.2z"/>
	<path class="st1" d="M157.3,31.2V18.4h3.9c1.1,0,2.1,0.3,3,0.8c0.9,0.5,1.6,1.2,2.1,2.2c0.5,0.9,0.7,2,0.7,3.2v0.6
		c0,1.2-0.2,2.2-0.7,3.2s-1.2,1.6-2.1,2.2s-1.9,0.8-3,0.8H157.3z M159.9,20.5v8.5h1.3c1,0,1.8-0.3,2.4-1s0.8-1.6,0.8-2.9v-0.7
		c0-1.3-0.3-2.3-0.8-3s-1.3-1-2.4-1H159.9z"/>
	<path class="st1" d="M179.5,25.1c0,1.3-0.2,2.4-0.7,3.3s-1.1,1.7-1.9,2.2s-1.8,0.8-2.9,0.8c-1.1,0-2-0.3-2.8-0.8s-1.5-1.2-1.9-2.2
		c-0.5-0.9-0.7-2-0.7-3.3v-0.6c0-1.3,0.2-2.4,0.7-3.3c0.5-1,1.1-1.7,1.9-2.2s1.8-0.8,2.8-0.8s2,0.3,2.8,0.8s1.5,1.2,1.9,2.2
		c0.5,1,0.7,2.1,0.7,3.3V25.1z M176.8,24.5c0-1.3-0.2-2.4-0.7-3.1s-1.2-1-2.1-1c-0.9,0-1.6,0.3-2,1s-0.7,1.7-0.7,3v0.6
		c0,1.3,0.2,2.3,0.7,3s1.2,1.1,2.1,1.1c0.9,0,1.6-0.3,2-1c0.5-0.7,0.7-1.7,0.7-3V24.5z"/>
	<path class="st1" d="M186.1,26.5H184v4.7h-2.6V18.4h4.8c1.5,0,2.7,0.3,3.5,1s1.2,1.6,1.2,2.9c0,0.9-0.2,1.6-0.6,2.2
		c-0.4,0.6-1,1-1.7,1.4l2.8,5.2v0.1h-2.8L186.1,26.5z M184,24.4h2.1c0.7,0,1.2-0.2,1.5-0.5c0.4-0.3,0.5-0.8,0.5-1.4
		c0-0.6-0.2-1.1-0.5-1.4s-0.9-0.5-1.6-0.5H184V24.4z"/>
	<path class="st1" d="M203.4,25.1c0,1.3-0.2,2.4-0.7,3.3s-1.1,1.7-1.9,2.2s-1.8,0.8-2.9,0.8c-1.1,0-2-0.3-2.8-0.8s-1.5-1.2-1.9-2.2
		c-0.5-0.9-0.7-2-0.7-3.3v-0.6c0-1.3,0.2-2.4,0.7-3.3c0.5-1,1.1-1.7,1.9-2.2s1.8-0.8,2.8-0.8c1.1,0,2,0.3,2.8,0.8s1.5,1.2,1.9,2.2
		c0.5,1,0.7,2.1,0.7,3.3V25.1z M200.7,24.5c0-1.3-0.2-2.4-0.7-3.1s-1.2-1-2.1-1c-0.9,0-1.6,0.3-2,1s-0.7,1.7-0.7,3v0.6
		c0,1.3,0.2,2.3,0.7,3s1.2,1.1,2.1,1.1c0.9,0,1.6-0.3,2-1c0.5-0.7,0.7-1.7,0.7-3V24.5z"/>
	<path class="st1" d="M219.8,26.9c-0.1,1.4-0.6,2.5-1.5,3.3s-2.1,1.2-3.6,1.2c-1.6,0-2.9-0.6-3.9-1.7s-1.4-2.6-1.4-4.5v-0.8
		c0-1.2,0.2-2.3,0.7-3.3s1.1-1.7,1.9-2.2c0.8-0.5,1.7-0.8,2.8-0.8c1.5,0,2.7,0.4,3.6,1.2s1.4,1.9,1.6,3.3h-2.6
		c-0.1-0.8-0.3-1.4-0.7-1.8s-1-0.6-1.8-0.6c-0.9,0-1.5,0.3-2,0.9s-0.7,1.6-0.7,2.9v1c0,1.4,0.2,2.4,0.6,3s1.1,1,2,1
		c0.8,0,1.4-0.2,1.8-0.6s0.6-0.9,0.7-1.7H219.8z"/>
	<path class="st1" d="M232,31.2h-2.6v-5.5h-5.1v5.5h-2.6V18.4h2.6v5.2h5.1v-5.2h2.6V31.2z"/>
	<path class="st1" d="M241.7,28.6H237l-0.9,2.6h-2.8l4.8-12.8h2.4l4.8,12.8h-2.8L241.7,28.6z M237.7,26.4h3.2l-1.6-4.8L237.7,26.4z"
		/>
	<path class="st1" d="M249.2,26.7v4.5h-2.6V18.4h5c1,0,1.8,0.2,2.5,0.5s1.3,0.9,1.7,1.5c0.4,0.6,0.6,1.4,0.6,2.2
		c0,1.3-0.4,2.2-1.3,3s-2,1.1-3.6,1.1H249.2z M249.2,24.6h2.4c0.7,0,1.2-0.2,1.6-0.5s0.5-0.8,0.5-1.4c0-0.6-0.2-1.1-0.6-1.5
		s-0.9-0.6-1.5-0.6h-2.4V24.6z"/>
	<path class="st1" d="M267.8,20.5h-3.9v10.7h-2.6V20.5h-3.9v-2.1h10.4V20.5z"/>
	<path class="st1" d="M277,25.7h-5.1v3.4h5.9v2.1h-8.6V18.4h8.6v2.1h-5.9v3h5.1V25.7z"/>
	<path class="st1" d="M284.2,26.5H282v4.7h-2.6V18.4h4.8c1.5,0,2.7,0.3,3.5,1s1.2,1.6,1.2,2.9c0,0.9-0.2,1.6-0.6,2.2
		c-0.4,0.6-1,1-1.7,1.4l2.8,5.2v0.1h-2.8L284.2,26.5z M282,24.4h2.1c0.7,0,1.2-0.2,1.5-0.5c0.4-0.3,0.5-0.8,0.5-1.4
		c0-0.6-0.2-1.1-0.5-1.4s-0.9-0.5-1.6-0.5H282V24.4z"/>
	<path class="st1" d="M36.5,9v3.6h-1.2V3.4h3.4c1,0,1.8,0.3,2.4,0.8c0.6,0.5,0.9,1.2,0.9,2c0,0.9-0.3,1.6-0.8,2.1
		C40.5,8.8,39.7,9,38.7,9H36.5z M36.5,8h2.2c0.7,0,1.2-0.2,1.5-0.5c0.3-0.3,0.5-0.8,0.5-1.3c0-0.6-0.2-1-0.5-1.3s-0.8-0.5-1.4-0.5
		h-2.3V8z"/>
	<path class="st1" d="M50.6,12.6h-1.2V8.4h-4.7v4.3h-1.2V3.4h1.2v4h4.7v-4h1.2V12.6z"/>
	<path class="st1" d="M54.1,12.6h-1.2V3.4h1.2V12.6z"/>
	<path class="st1" d="M57.5,11.6h4.4v1h-5.6V3.4h1.2V11.6z"/>
	<path class="st1" d="M64.6,12.6h-1.2V3.4h1.2V12.6z"/>
	<path class="st1" d="M68.1,9v3.6h-1.2V3.4h3.4c1,0,1.8,0.3,2.4,0.8c0.6,0.5,0.9,1.2,0.9,2c0,0.9-0.3,1.6-0.8,2.1
		C72.1,8.8,71.3,9,70.2,9H68.1z M68.1,8h2.2c0.7,0,1.2-0.2,1.5-0.5c0.3-0.3,0.5-0.8,0.5-1.3c0-0.6-0.2-1-0.5-1.3s-0.8-0.5-1.4-0.5
		h-2.3V8z"/>
	<path class="st1" d="M76.3,9v3.6H75V3.4h3.4c1,0,1.8,0.3,2.4,0.8c0.6,0.5,0.9,1.2,0.9,2c0,0.9-0.3,1.6-0.8,2.1
		C80.3,8.8,79.5,9,78.4,9H76.3z M76.3,8h2.2c0.7,0,1.2-0.2,1.5-0.5c0.3-0.3,0.5-0.8,0.5-1.3c0-0.6-0.2-1-0.5-1.3s-0.8-0.5-1.4-0.5
		h-2.3V8z"/>
	<path class="st1" d="M84.5,12.6h-1.2V3.4h1.2V12.6z"/>
	<path class="st1" d="M93.9,12.6h-1.2L88,5.5v7.1h-1.2V3.4H88l4.7,7.2V3.4h1.2V12.6z"/>
	<path class="st1" d="M101.3,8.4h-4v3.3h4.7v1H96V3.4h5.8v1h-4.6v3h4V8.4z"/>
	<path class="st1" d="M108,12.6h-1.2V3.4h1.2V12.6z"/>
	<path class="st1" d="M117.3,12.6h-1.2l-4.7-7.1v7.1h-1.2V3.4h1.2l4.7,7.2V3.4h1.2V12.6z"/>
	<path class="st1" d="M122.2,8.5c-1-0.3-1.8-0.7-2.3-1.1c-0.5-0.4-0.7-1-0.7-1.6c0-0.7,0.3-1.3,0.9-1.8c0.6-0.5,1.3-0.7,2.3-0.7
		c0.6,0,1.2,0.1,1.7,0.4c0.5,0.2,0.9,0.6,1.2,1c0.3,0.4,0.4,0.9,0.4,1.4h-1.2c0-0.6-0.2-1-0.5-1.3s-0.9-0.5-1.5-0.5
		c-0.6,0-1.1,0.1-1.4,0.4c-0.3,0.3-0.5,0.6-0.5,1.1c0,0.4,0.2,0.7,0.5,1c0.3,0.3,0.9,0.5,1.6,0.7c0.8,0.2,1.4,0.5,1.8,0.7
		c0.4,0.3,0.8,0.6,1,0.9c0.2,0.3,0.3,0.8,0.3,1.2c0,0.7-0.3,1.3-0.9,1.8c-0.6,0.5-1.4,0.7-2.3,0.7c-0.6,0-1.2-0.1-1.8-0.4
		s-1-0.6-1.3-1c-0.3-0.4-0.4-0.9-0.4-1.4h1.2c0,0.6,0.2,1,0.6,1.3c0.4,0.3,1,0.5,1.7,0.5c0.6,0,1.1-0.1,1.5-0.4
		c0.3-0.3,0.5-0.6,0.5-1.1s-0.2-0.8-0.5-1.1C123.6,9,123,8.7,122.2,8.5z"/>
	<path class="st1" d="M133.5,4.4h-3v8.2h-1.2V4.4h-3v-1h7.1V4.4z"/>
	<path class="st1" d="M136.2,12.6H135V3.4h1.2V12.6z"/>
	<path class="st1" d="M144.7,4.4h-3v8.2h-1.2V4.4h-3v-1h7.1V4.4z"/>
	<path class="st1" d="M152.5,3.4v6.3c0,0.9-0.3,1.6-0.8,2.1c-0.5,0.6-1.3,0.9-2.2,0.9l-0.3,0c-1,0-1.8-0.3-2.4-0.8
		c-0.6-0.5-0.9-1.3-0.9-2.3V3.4h1.2v6.3c0,0.7,0.2,1.2,0.6,1.6s0.9,0.6,1.6,0.6c0.7,0,1.2-0.2,1.6-0.6c0.4-0.4,0.5-0.9,0.5-1.6V3.4
		H152.5z"/>
	<path class="st1" d="M160.8,4.4h-3v8.2h-1.2V4.4h-3v-1h7.1V4.4z"/>
	<path class="st1" d="M167.4,8.4h-4v3.3h4.7v1h-5.9V3.4h5.8v1h-4.6v3h4V8.4z"/>
	<path class="st1" d="M179.9,8.3c0,0.9-0.2,1.7-0.5,2.4s-0.7,1.2-1.3,1.5s-1.2,0.5-2,0.5c-0.7,0-1.4-0.2-1.9-0.5s-1-0.9-1.3-1.5
		c-0.3-0.7-0.5-1.4-0.5-2.3V7.7c0-0.9,0.2-1.7,0.5-2.4s0.7-1.2,1.3-1.6c0.6-0.4,1.2-0.5,1.9-0.5c0.7,0,1.4,0.2,2,0.5
		c0.6,0.4,1,0.9,1.3,1.6c0.3,0.7,0.5,1.5,0.5,2.4V8.3z M178.7,7.7c0-1.1-0.2-1.9-0.7-2.5s-1.1-0.9-1.8-0.9c-0.8,0-1.4,0.3-1.8,0.9
		c-0.4,0.6-0.7,1.4-0.7,2.4v0.7c0,1.1,0.2,1.9,0.7,2.5c0.4,0.6,1.1,0.9,1.8,0.9c0.8,0,1.4-0.3,1.8-0.9s0.7-1.4,0.7-2.5V7.7z"/>
	<path class="st1" d="M186.9,8.5H183v4.1h-1.2V3.4h5.7v1H183v3.2h3.9V8.5z"/>
	<path class="st1" d="M199,9.7c-0.1,1-0.5,1.7-1.1,2.3c-0.6,0.5-1.4,0.8-2.4,0.8c-1.1,0-2-0.4-2.6-1.2c-0.7-0.8-1-1.8-1-3.1V7.5
		c0-0.9,0.2-1.6,0.5-2.3c0.3-0.7,0.7-1.2,1.3-1.5c0.6-0.3,1.2-0.5,2-0.5c1,0,1.8,0.3,2.4,0.8c0.6,0.5,0.9,1.3,1,2.3h-1.2
		c-0.1-0.7-0.3-1.3-0.7-1.6c-0.4-0.3-0.8-0.5-1.5-0.5c-0.8,0-1.4,0.3-1.8,0.9c-0.4,0.6-0.7,1.4-0.7,2.5v0.9c0,1,0.2,1.8,0.6,2.4
		s1,0.9,1.8,0.9c0.7,0,1.2-0.2,1.6-0.5c0.4-0.3,0.6-0.8,0.7-1.6H199z"/>
	<path class="st1" d="M205.8,8.4h-4v3.3h4.7v1h-5.9V3.4h5.8v1h-4.6v3h4V8.4z"/>
	<path class="st1" d="M211.4,8.9h-2.2v3.7H208V3.4h3.1c1,0,1.8,0.2,2.4,0.7s0.8,1.2,0.8,2.1c0,0.6-0.2,1.1-0.5,1.5
		c-0.3,0.4-0.7,0.7-1.3,1l2.2,3.9v0.1h-1.3L211.4,8.9z M209.2,7.9h1.9c0.6,0,1.1-0.2,1.4-0.5c0.4-0.3,0.5-0.7,0.5-1.3
		c0-0.6-0.2-1-0.5-1.3c-0.3-0.3-0.8-0.5-1.5-0.5h-1.9V7.9z"/>
	<path class="st1" d="M221.9,4.4h-3v8.2h-1.2V4.4h-3v-1h7.1V4.4z"/>
	<path class="st1" d="M224.6,12.6h-1.2V3.4h1.2V12.6z"/>
	<path class="st1" d="M231.9,8.5H228v4.1h-1.2V3.4h5.7v1H228v3.2h3.9V8.5z"/>
	<path class="st1" d="M235.3,12.6h-1.2V3.4h1.2V12.6z"/>
	<path class="st1" d="M242.7,8.4h-4v3.3h4.7v1h-5.9V3.4h5.8v1h-4.6v3h4V8.4z"/>
	<path class="st1" d="M244.9,12.6V3.4h2.6c0.8,0,1.5,0.2,2.1,0.5c0.6,0.4,1.1,0.9,1.4,1.5c0.3,0.7,0.5,1.4,0.5,2.3v0.6
		c0,0.9-0.2,1.6-0.5,2.3c-0.3,0.7-0.8,1.2-1.4,1.5c-0.6,0.4-1.4,0.5-2.2,0.5H244.9z M246.1,4.4v7.2h1.3c0.9,0,1.7-0.3,2.2-0.9
		c0.5-0.6,0.8-1.4,0.8-2.5V7.7c0-1.1-0.2-1.9-0.7-2.4c-0.5-0.6-1.2-0.9-2.1-0.9H246.1z"/>
	<path class="st1" d="M257.9,9v3.6h-1.2V3.4h3.4c1,0,1.8,0.3,2.4,0.8s0.9,1.2,0.9,2c0,0.9-0.3,1.6-0.8,2.1c-0.6,0.5-1.4,0.7-2.4,0.7
		H257.9z M257.9,8h2.2c0.7,0,1.2-0.2,1.5-0.5c0.3-0.3,0.5-0.8,0.5-1.3c0-0.6-0.2-1-0.5-1.3c-0.3-0.3-0.8-0.5-1.4-0.5h-2.3V8z"/>
	<path class="st1" d="M271.4,3.4v6.3c0,0.9-0.3,1.6-0.8,2.1c-0.5,0.6-1.3,0.9-2.2,0.9l-0.3,0c-1,0-1.8-0.3-2.4-0.8
		c-0.6-0.5-0.9-1.3-0.9-2.3V3.4h1.2v6.3c0,0.7,0.2,1.2,0.6,1.6s0.9,0.6,1.6,0.6c0.7,0,1.2-0.2,1.6-0.6s0.5-0.9,0.5-1.6V3.4H271.4z"
		/>
	<path class="st1" d="M273.3,12.6V3.4h3c1,0,1.8,0.2,2.3,0.6c0.5,0.4,0.8,1,0.8,1.8c0,0.4-0.1,0.8-0.4,1.1c-0.2,0.3-0.6,0.6-1,0.8
		c0.5,0.1,0.9,0.4,1.2,0.8c0.3,0.4,0.4,0.9,0.4,1.4c0,0.8-0.3,1.5-0.8,2c-0.5,0.5-1.3,0.7-2.3,0.7H273.3z M274.5,7.3h1.8
		c0.5,0,1-0.1,1.3-0.4c0.3-0.3,0.5-0.6,0.5-1.1c0-0.5-0.1-0.9-0.4-1.1c-0.3-0.2-0.7-0.3-1.4-0.3h-1.8V7.3z M274.5,8.3v3.3h2
		c0.6,0,1-0.1,1.3-0.4c0.3-0.3,0.5-0.7,0.5-1.2c0-1.1-0.6-1.7-1.8-1.7H274.5z"/>
	<path class="st1" d="M282.6,11.6h4.4v1h-5.6V3.4h1.2V11.6z"/>
	<path class="st1" d="M289.7,12.6h-1.2V3.4h1.2V12.6z"/>
	<path class="st1" d="M298.7,9.7c-0.1,1-0.5,1.7-1.1,2.3c-0.6,0.5-1.4,0.8-2.4,0.8c-1.1,0-2-0.4-2.6-1.2c-0.7-0.8-1-1.8-1-3.1V7.5
		c0-0.9,0.2-1.6,0.5-2.3c0.3-0.7,0.7-1.2,1.3-1.5c0.6-0.3,1.2-0.5,2-0.5c1,0,1.8,0.3,2.4,0.8c0.6,0.5,0.9,1.3,1,2.3h-1.2
		c-0.1-0.7-0.3-1.3-0.7-1.6s-0.8-0.5-1.5-0.5c-0.8,0-1.4,0.3-1.8,0.9s-0.7,1.4-0.7,2.5v0.9c0,1,0.2,1.8,0.6,2.4s1,0.9,1.8,0.9
		c0.7,0,1.2-0.2,1.6-0.5c0.4-0.3,0.6-0.8,0.7-1.6H298.7z"/>
	<path class="st1" d="M308.7,10.2h-3.9l-0.9,2.4h-1.3l3.5-9.2h1.1l3.5,9.2h-1.2L308.7,10.2z M305.2,9.2h3.1l-1.6-4.3L305.2,9.2z"/>
	<path class="st1" d="M318.8,9.7c-0.1,1-0.5,1.7-1.1,2.3s-1.4,0.8-2.4,0.8c-1.1,0-2-0.4-2.6-1.2c-0.7-0.8-1-1.8-1-3.1V7.5
		c0-0.9,0.2-1.6,0.5-2.3c0.3-0.7,0.7-1.2,1.3-1.5c0.6-0.3,1.2-0.5,2-0.5c1,0,1.8,0.3,2.4,0.8c0.6,0.5,0.9,1.3,1,2.3h-1.2
		c-0.1-0.7-0.3-1.3-0.7-1.6c-0.4-0.3-0.8-0.5-1.5-0.5c-0.8,0-1.4,0.3-1.8,0.9c-0.4,0.6-0.7,1.4-0.7,2.5v0.9c0,1,0.2,1.8,0.6,2.4
		s1,0.9,1.8,0.9c0.7,0,1.2-0.2,1.6-0.5c0.4-0.3,0.6-0.8,0.7-1.6H318.8z"/>
	<path class="st1" d="M327.3,9.7c-0.1,1-0.5,1.7-1.1,2.3c-0.6,0.5-1.4,0.8-2.4,0.8c-1.1,0-2-0.4-2.6-1.2c-0.7-0.8-1-1.8-1-3.1V7.5
		c0-0.9,0.2-1.6,0.5-2.3c0.3-0.7,0.7-1.2,1.3-1.5c0.6-0.3,1.2-0.5,2-0.5c1,0,1.8,0.3,2.4,0.8c0.6,0.5,0.9,1.3,1,2.3H326
		c-0.1-0.7-0.3-1.3-0.7-1.6s-0.8-0.5-1.5-0.5c-0.8,0-1.4,0.3-1.8,0.9s-0.7,1.4-0.7,2.5v0.9c0,1,0.2,1.8,0.6,2.4s1,0.9,1.8,0.9
		c0.7,0,1.2-0.2,1.6-0.5c0.4-0.3,0.6-0.8,0.7-1.6H327.3z"/>
	<path class="st1" d="M336,8.3c0,0.9-0.2,1.7-0.5,2.4s-0.7,1.2-1.3,1.5s-1.2,0.5-2,0.5c-0.7,0-1.4-0.2-1.9-0.5
		c-0.6-0.4-1-0.9-1.3-1.5c-0.3-0.7-0.5-1.4-0.5-2.3V7.7c0-0.9,0.2-1.7,0.5-2.4c0.3-0.7,0.7-1.2,1.3-1.6c0.6-0.4,1.2-0.5,1.9-0.5
		c0.7,0,1.4,0.2,2,0.5c0.6,0.4,1,0.9,1.3,1.6c0.3,0.7,0.5,1.5,0.5,2.4V8.3z M334.8,7.7c0-1.1-0.2-1.9-0.7-2.5
		c-0.4-0.6-1.1-0.9-1.8-0.9c-0.8,0-1.4,0.3-1.8,0.9c-0.4,0.6-0.7,1.4-0.7,2.4v0.7c0,1.1,0.2,1.9,0.7,2.5c0.4,0.6,1.1,0.9,1.8,0.9
		c0.8,0,1.4-0.3,1.8-0.9s0.7-1.4,0.7-2.5V7.7z"/>
	<path class="st1" d="M344.4,3.4v6.3c0,0.9-0.3,1.6-0.8,2.1c-0.5,0.6-1.3,0.9-2.2,0.9l-0.3,0c-1,0-1.8-0.3-2.4-0.8
		c-0.6-0.5-0.9-1.3-0.9-2.3V3.4h1.2v6.3c0,0.7,0.2,1.2,0.6,1.6s0.9,0.6,1.6,0.6c0.7,0,1.2-0.2,1.6-0.6c0.4-0.4,0.5-0.9,0.5-1.6V3.4
		H344.4z"/>
	<path class="st1" d="M353.4,12.6h-1.2l-4.7-7.1v7.1h-1.2V3.4h1.2l4.7,7.2V3.4h1.2V12.6z"/>
	<path class="st1" d="M361.8,4.4h-3v8.2h-1.2V4.4h-3v-1h7.1V4.4z"/>
	<path class="st1" d="M367.7,10.2h-3.9l-0.9,2.4h-1.3l3.5-9.2h1.1l3.5,9.2h-1.2L367.7,10.2z M364.2,9.2h3.1l-1.6-4.3L364.2,9.2z"/>
	<path class="st1" d="M378.2,12.6H377l-4.7-7.1v7.1h-1.2V3.4h1.2l4.7,7.2V3.4h1.2V12.6z"/>
	<path class="st1" d="M386.6,4.4h-3v8.2h-1.2V4.4h-3v-1h7.1V4.4z"/>
	<path class="st1" d="M390.6,8.5c-1-0.3-1.8-0.7-2.3-1.1c-0.5-0.4-0.7-1-0.7-1.6c0-0.7,0.3-1.3,0.9-1.8c0.6-0.5,1.3-0.7,2.3-0.7
		c0.6,0,1.2,0.1,1.7,0.4s0.9,0.6,1.2,1c0.3,0.4,0.4,0.9,0.4,1.4h-1.2c0-0.6-0.2-1-0.5-1.3s-0.9-0.5-1.5-0.5c-0.6,0-1.1,0.1-1.4,0.4
		c-0.3,0.3-0.5,0.6-0.5,1.1c0,0.4,0.2,0.7,0.5,1c0.3,0.3,0.9,0.5,1.6,0.7c0.8,0.2,1.4,0.5,1.8,0.7c0.4,0.3,0.8,0.6,1,0.9
		c0.2,0.3,0.3,0.8,0.3,1.2c0,0.7-0.3,1.3-0.9,1.8c-0.6,0.5-1.4,0.7-2.3,0.7c-0.6,0-1.2-0.1-1.8-0.4c-0.5-0.2-1-0.6-1.3-1
		c-0.3-0.4-0.4-0.9-0.4-1.4h1.2c0,0.6,0.2,1,0.6,1.3c0.4,0.3,1,0.5,1.7,0.5c0.6,0,1.1-0.1,1.5-0.4c0.3-0.3,0.5-0.6,0.5-1.1
		s-0.2-0.8-0.5-1.1C392,9,391.4,8.7,390.6,8.5z"/>
</g>
</svg>
